<?xml version="1.0" encoding="UTF-8"?>
<svg version="1.1" viewBox="0 0 24 24" xmlns="http://www.w3.org/2000/svg">
 <path d="m20.843 5.1019v0.26809l-0.85563 0.94116-0.08556 0.09126-1.7113 1.7112-0.50197 0.50766-0.09127 0.09126-0.12549 0.11978a0.17113 0.17112 0 0 1-0.07986-0.062736l0.29662-0.8556 0.58753-1.6713h-1.426l0.57042-1.7112 0.9469-2.852h2.7608l-1.6656 2.852-0.33084 0.5704z" fill="#333333" stroke-width=".99999"/>
 <g transform="matrix(.49824 0 0 .49563 1.7612 8.3131)" fill="#0071bc" stroke="#0071bc" stroke-width="2.0123" data-name="Layer 2">
  <polygon points="22 2 2 2 12 12.62"/>
  <polygon points="14 10 14 19 10 22 10 10"/>
 </g>
 <path d="m12.22 18.499h9.8443" fill="#0071bc" stroke="#0071bc" stroke-linejoin="round" stroke-miterlimit="0" stroke-width="1.6" style="paint-order:markers stroke fill"/>
 <path d="m12.22 15.955h9.8443" fill="#0071bc" stroke="#0071bc" stroke-linejoin="round" stroke-miterlimit="0" stroke-width="1.6" style="paint-order:markers stroke fill"/>
 <path d="m12.22 13.41h9.8443" fill="#0071bc" stroke="#0071bc" stroke-linejoin="round" stroke-miterlimit="0" stroke-width="1.6" style="paint-order:markers stroke fill"/>
</svg>
