<?xml version="1.0" encoding="UTF-8"?>
<svg width="46.988" height="40.886" fill="none" fill-rule="evenodd" version="1.1" viewBox="0 0 46.988 40.886" xmlns="http://www.w3.org/2000/svg">
 <g stroke="#333333" stroke-width="1">
  <path id="Face" d="m23.494 1.4647c-11.679 0-21.161 17.085-21.161 24.871s9.4817 14.107 21.161 14.107c11.679 0 21.161-6.3212 21.161-14.107s-9.4817-24.871-21.16-24.871z"/>
  <path d="m8.0053 32.1c0 3.3593 6.972 7.3451 15.56 7.3451 8.5876 0 15.56-3.9858 15.56-7.3451"/>
  <path d="m11.022 31.437c0 3.3593 5.6202 6.0866 12.543 6.0866s12.543-2.7273 12.543-6.0866"/>
  <path d="m13.454 30.392c0 3.3593 4.5305 5.6368 10.111 5.6368s10.111-2.2774 10.111-5.6368"/>
  <path id="Hair" d="m41.406 15.729c0.03979-0.38163 0.05989-0.76763 0.05989-1.1573 0-7.7978-8.0531-14.129-17.972-14.129s-17.972 6.3308-17.972 14.129c0 0.38966 0.020104 0.77566 0.059891 1.1573 3.7478-7.1429 10.372-14.265 17.912-14.265 7.5402 0 14.164 7.1217 17.912 14.265z"/>
  <path d="m30.451 17.129c-0.50768-1.2747-1.7087-2.1715-3.108-2.1715s-2.6003 0.89682-3.108 2.1715c0.50768 1.2747 1.7087 2.1715 3.108 2.1715s2.6003-0.89682 3.108-2.1715z" stroke-width=".5"/>
  <path d="m27.343 15.781c-0.86702 0-1.5709 0.63243-1.5709 1.4114s0.70391 1.4114 1.5709 1.4114c0.86702 0 1.5709-0.63242 1.5709-1.4114s-0.70391-1.4114-1.5709-1.4114zm0 1.0585c-0.21675 0-0.39273 0.1581-0.39273 0.35285 0 0.19474 0.17598 0.35285 0.39273 0.35285s0.39273-0.15811 0.39273-0.35285c0-0.19474-0.17598-0.35285-0.39273-0.35285z" stroke-width=".5"/>
  <g transform="matrix(-.0062089 0 0 .0048811 40.631 -1.0674)" stroke-width="90.825">
   <path d="m2879.4 3728c81.766-261.16 275.2-444.89 500.56-444.89s418.8 183.74 500.56 444.89c-81.766 261.16-275.2 444.89-500.56 444.89s-418.8-183.74-500.56-444.89z"/>
   <path d="m3380 3451.8c139.64 0 253.01 129.57 253.01 289.16s-113.37 289.16-253.01 289.16-253.01-129.57-253.01-289.16 113.37-289.16 253.01-289.16zm0 216.87c34.91 0 63.253 32.391 63.253 72.289 0 39.897-28.343 72.289-63.253 72.289s-63.253-32.392-63.253-72.289c0-39.898 28.343-72.289 63.253-72.289z"/>
  </g>
  <path id="Mouth" d="m30.447 29.924c0 1.0873-3.1006 1.9701-6.9196 1.9701-3.819 0-6.9196-0.88276-6.9196-1.9701 1.6146 0.32619 4.1593 0.59102 6.9196 0.59102 2.7603 0 5.305-0.26483 6.9196-0.59102z"/>
  <ellipse transform="scale(-1,1)" cx="-24.394" cy="24.397" rx=".56104" ry=".44106"/>
  <ellipse transform="scale(-1,1)" cx="-22.594" cy="24.397" rx=".56104" ry=".44106"/>
  <path d="m44.652 26.135c0.46182-0.7432 0.84902-1.5259 1.0893-2.3087 0.88192-2.6816 0.88192-5.3633 0-6.7041-0.81095-1.2329-2.3676-1.3321-3.2984 0.74486 1.3735 3.0823 2.1639 6.0339 2.2091 8.2679z"/>
  <path d="m4.5448 17.867c-0.93085-2.077-2.4875-1.9777-3.2984-0.74484-0.88196 1.3408-0.88196 4.0225 0 6.7041 0.24027 0.78274 0.62747 1.5655 1.0893 2.3086 0.045282-2.2338 0.83566-5.1855 2.2091-8.2679z"/>
 </g>
</svg>
